<?xml version="1.0" standalone="no"?>
<!DOCTYPE svg PUBLIC "-//W3C//DTD SVG 20010904//EN"
 "http://www.w3.org/TR/2001/REC-SVG-20010904/DTD/svg10.dtd">
<svg version="1.0" xmlns="http://www.w3.org/2000/svg"
 width="180.000000pt" height="180.000000pt" viewBox="0 0 180.000000 180.000000"
 preserveAspectRatio="xMidYMid meet">
<metadata>
Created by potrace 1.14, written by Peter Selinger 2001-2017
</metadata>
<g transform="translate(0.000000,180.000000) scale(0.100000,-0.100000)"
fill="#000000" stroke="none">
<path d="M613 1790 c-20 -8 -28 -26 -24 -52 2 -17 -41 -27 -100 -23 -45 3 -68
0 -79 -10 -14 -12 -20 -12 -44 4 -22 15 -33 17 -56 8 -21 -8 -35 -7 -63 6 -40
19 -53 16 -120 -29 -26 -18 -56 -36 -67 -39 -23 -7 -36 -61 -25 -103 4 -15 8
-38 9 -52 2 -14 7 -36 11 -50 5 -14 7 -37 6 -52 -2 -21 2 -28 16 -28 11 0 5
-7 -17 -18 -43 -21 -52 -60 -21 -91 18 -18 33 -21 118 -20 54 0 106 -3 115 -6
10 -4 28 -25 40 -46 19 -35 38 -46 71 -40 19 3 47 -22 58 -54 7 -19 16 -35 20
-35 15 0 77 -63 73 -74 -3 -8 -32 -12 -86 -11 -55 1 -85 -3 -94 -12 -19 -19
-28 -77 -15 -101 6 -10 7 -22 4 -26 -3 -3 -14 -28 -23 -54 -10 -27 -36 -68
-60 -93 -43 -45 -74 -96 -97 -159 -18 -50 -16 -59 14 -66 16 -4 37 -15 49 -26
12 -10 32 -21 46 -23 14 -3 42 -12 62 -20 20 -8 36 -13 36 -10 0 11 59 -25 72
-43 7 -11 20 -21 28 -25 10 -4 8 -6 -7 -6 -12 -1 -24 -7 -26 -13 -4 -10 -6
-10 -6 0 -1 8 -20 12 -62 12 -58 0 -61 -1 -72 -30 -14 -36 -23 -37 -49 -5 -14
18 -33 26 -71 32 -29 4 -59 6 -67 4 -88 -17 -134 -105 -95 -181 9 -18 11 -31
5 -35 -14 -9 -13 -68 2 -83 9 -9 222 -12 895 -12 l883 0 -1 155 0 155 -239 0
-240 0 4 -30 c4 -39 -8 -39 -24 0 -12 29 -15 30 -71 30 -55 0 -60 -2 -71 -27
-7 -16 -13 -30 -15 -32 -1 -2 -14 10 -28 28 -15 17 -29 30 -33 30 -4 -1 -115
-1 -247 0 -211 1 -238 3 -224 16 12 12 47 21 95 24 26 2 56 41 58 77 2 23 8
38 17 39 8 1 34 5 59 8 25 3 59 9 77 13 18 3 45 2 60 -3 34 -12 78 8 117 54
21 25 37 32 103 44 43 7 83 14 88 14 6 1 20 7 33 13 12 7 27 10 32 7 6 -3 10
-2 10 3 0 13 80 52 116 57 16 2 53 -5 83 -15 49 -16 55 -16 84 -2 18 9 38 22
45 29 7 7 21 13 31 13 10 0 23 12 30 26 10 22 9 31 -4 50 -8 13 -13 24 -9 24
4 0 1 6 -5 14 -6 7 -39 19 -74 26 -34 6 -70 16 -79 21 -21 11 -19 48 4 74 18
18 18 20 -1 39 -17 16 -32 19 -105 18 -75 -2 -86 0 -87 16 -3 42 -7 60 -13 70
-8 13 -202 141 -229 151 -17 6 -19 17 -19 74 0 36 3 70 6 75 3 5 -12 32 -34
60 -46 57 -47 65 -20 92 l21 21 -36 41 c-29 35 -33 43 -20 51 8 4 15 21 15 36
0 22 -7 32 -31 43 -26 13 -36 13 -71 1 -22 -7 -59 -16 -82 -19 -38 -6 -45 -3
-72 27 -56 63 -127 85 -191 59z"/>
</g>
</svg>
